<svg width="30" height="30" viewBox="0 0 30 30" fill="none" xmlns="http://www.w3.org/2000/svg">
<circle cx="15" cy="15" r="15" fill="#4F5D81"/>
<path d="M3.75 22.5778C3.75 22.4255 4.60151 18.1498 10.0322 17.2597C15.1539 16.4211 16.4128 16.6698 16.4128 16.6698C16.4128 16.6698 19.2901 16.5994 22.3116 17.8165C25.8378 19.233 26.18 22.5749 26.18 22.5749L3.75 22.5778Z" fill="#FF725E"/>
<path d="M10.1981 8.19876C7.96635 8.29672 7.50053 10.1516 7.69739 11.2024C7.79124 11.7014 8.06134 12.2391 7.67106 12.6824C7.39409 12.9939 6.831 13.1877 6.60439 13.5147C6.32856 13.9115 6.63071 14.3604 6.85961 14.7677C7.08851 15.1751 7.20296 15.6931 6.68107 15.982C7.95834 16.1638 9.24591 16.3464 10.5552 16.3661C11.8645 16.3858 13.2162 16.2315 14.3092 15.7861" fill="#263238"/>
<path d="M8.76182 11.9107C7.20185 9.85633 9.14408 8.55254 10.4271 8.07402C11.1916 7.79212 12.1118 7.71601 13.0045 7.68641C13.8972 7.65681 14.7762 7.66597 15.6369 7.78719C16.4975 7.9084 17.3284 8.14943 17.9465 8.53493C19.0486 9.21994 19.3428 10.2587 19.289 11.2221C19.2269 12.361 18.7476 13.4764 17.887 14.4851C17.7725 14.6141 17.6489 14.7466 17.4452 14.8206C17.2415 14.8946 16.937 14.8847 16.81 14.7614" fill="#263238"/>
<path d="M14.0437 18.9617C15.5624 19.0005 16.8512 18.178 16.9484 16.7368L17.4429 9.41094L17.4097 9.91695C17.4058 9.77041 17.3131 9.63006 17.1499 9.52341C16.9866 9.41676 16.7646 9.35151 16.5273 9.34046L11.8085 9.11917C11.4229 9.10086 11.0353 9.13087 10.6691 9.20738C10.3029 9.28389 9.96568 9.40531 9.67782 9.56432C9.38996 9.72333 9.15743 9.91662 8.99428 10.1325C8.83114 10.3484 8.74075 10.5824 8.72859 10.8204C8.66793 11.9353 8.6645 13.2983 8.91858 14.1243C9.42903 15.7861 11.5166 15.9609 11.5166 15.9609L11.4022 17.1752C11.3817 17.3994 11.4337 17.624 11.5554 17.8358C11.677 18.0475 11.8658 18.2423 12.1107 18.4088C12.3556 18.5753 12.6518 18.7101 12.982 18.8055C13.3123 18.9009 13.6701 18.955 14.0345 18.9645L14.0437 18.9617Z" fill="#FFBE9D"/>
<path d="M9.68542 11.6809C9.68542 11.737 9.7216 11.7908 9.78599 11.8304C9.85038 11.8701 9.93771 11.8924 10.0288 11.8924C10.0731 11.8937 10.1174 11.8895 10.159 11.8802C10.2007 11.8708 10.2389 11.8564 10.2714 11.8378C10.304 11.8193 10.3301 11.7969 10.3484 11.772C10.3667 11.7471 10.3767 11.7202 10.3778 11.6929C10.3778 11.6368 10.3417 11.5831 10.2773 11.5434C10.2129 11.5038 10.1256 11.4815 10.0345 11.4815C9.99012 11.48 9.9457 11.484 9.90389 11.4933C9.86208 11.5025 9.82373 11.5169 9.79115 11.5355C9.75857 11.5542 9.73241 11.5766 9.71425 11.6016C9.69608 11.6266 9.68628 11.6536 9.68542 11.6809Z" fill="#263238"/>
<path d="M9.24134 11.5174C9.28598 11.5442 9.54349 11.4195 9.91775 11.4138C10.292 11.4082 10.5724 11.5174 10.6113 11.4885C10.6308 11.4759 10.5839 11.4265 10.4625 11.3751C10.2973 11.3085 10.1025 11.2753 9.90516 11.2799C9.71046 11.283 9.52243 11.3242 9.36839 11.3976C9.25622 11.4547 9.2196 11.5055 9.24134 11.5174Z" fill="#263238"/>
<path d="M13.3902 11.6809C13.3902 11.737 13.4264 11.7908 13.4908 11.8304C13.5551 11.8701 13.6425 11.8923 13.7335 11.8923C13.7779 11.8938 13.8224 11.8897 13.8642 11.8804C13.906 11.8711 13.9443 11.8567 13.977 11.8381C14.0096 11.8195 14.0359 11.7971 14.0542 11.7722C14.0726 11.7472 14.0826 11.7203 14.0838 11.6929C14.0838 11.6368 14.0476 11.5831 13.9832 11.5434C13.9188 11.5038 13.8315 11.4815 13.7404 11.4815C13.696 11.4801 13.6516 11.4841 13.6098 11.4934C13.568 11.5028 13.5296 11.5171 13.497 11.5357C13.4644 11.5543 13.4381 11.5767 13.4197 11.6017C13.4014 11.6266 13.3914 11.6536 13.3902 11.6809Z" fill="#263238"/>
<path d="M12.9221 11.4934C12.9667 11.5209 13.2242 11.3962 13.5985 11.3898C13.9727 11.3835 14.252 11.4941 14.2852 11.4652C14.3046 11.4519 14.2588 11.4025 14.1364 11.3511C13.9713 11.2849 13.777 11.2519 13.5801 11.2566C13.3856 11.2595 13.1976 11.3005 13.0434 11.3736C12.9369 11.4307 12.9003 11.4815 12.9221 11.4934Z" fill="#263238"/>
<path d="M11.6448 13.2272C11.6448 13.2138 11.4159 13.1933 11.0348 13.1708C10.9386 13.1666 10.8471 13.156 10.8299 13.1165C10.8187 13.0559 10.8379 12.9947 10.8848 12.941C10.9688 12.7963 11.0558 12.6453 11.1458 12.4879C11.5086 11.8423 11.7673 11.3131 11.7249 11.3046C11.6826 11.2962 11.3552 11.8113 10.9924 12.4562L10.7441 12.9114C10.6874 12.9835 10.6736 13.0656 10.7052 13.1433C10.7198 13.1639 10.7419 13.1821 10.7699 13.1966C10.7979 13.211 10.831 13.2212 10.8665 13.2265C10.9197 13.2346 10.9743 13.2384 11.0291 13.2377C11.409 13.2434 11.6448 13.2406 11.6448 13.2272Z" fill="#263238"/>
<path d="M11.5166 15.9581C12.7939 15.947 14.0412 15.7179 15.1195 15.2963C15.1195 15.2963 14.2039 16.4683 11.48 16.3619L11.5166 15.9581Z" fill="#EB996E"/>
<path d="M11.8348 13.7804C11.9033 13.7238 11.9941 13.6788 12.0986 13.6499C12.2032 13.6209 12.318 13.6088 12.4322 13.6148C12.5149 13.6181 12.5957 13.6316 12.6698 13.6545C12.7439 13.6774 12.8098 13.7092 12.8637 13.748C12.9154 13.7855 12.9471 13.8319 12.9547 13.8809C12.9623 13.93 12.9453 13.9792 12.906 14.0221C12.8099 14.1109 12.5993 14.1349 12.4196 14.1074C12.2412 14.072 12.0758 14.0153 11.9332 13.9404C11.8891 13.9226 11.8503 13.9001 11.8188 13.8741C11.8051 13.8613 11.7979 13.8464 11.7979 13.8311C11.7979 13.8158 11.8051 13.8009 11.8188 13.7881" fill="#EB996E"/>
<path d="M12.7504 13.3667C12.6897 13.3667 12.7012 13.6155 12.3612 13.7994C12.0213 13.9833 11.5887 13.9636 11.5876 13.9989C11.5876 14.0144 11.686 14.0454 11.8691 14.0454C12.1089 14.0435 12.3399 13.9896 12.5215 13.8931C12.6945 13.8009 12.8022 13.6706 12.8213 13.5302C12.8305 13.428 12.7824 13.3646 12.7504 13.3667Z" fill="#263238"/>
<path d="M12.7344 11.0932C12.7744 11.1552 13.1464 11.1185 13.587 11.1432C14.0276 11.1679 14.3882 11.2355 14.442 11.1784C14.466 11.151 14.4019 11.0932 14.2554 11.0375C14.0608 10.9667 13.8426 10.9241 13.6173 10.913C13.3921 10.9019 13.1656 10.9225 12.9552 10.9734C12.7962 11.0135 12.7172 11.0636 12.7344 11.0932Z" fill="#263238"/>
<path d="M9.34775 10.8479C9.41528 10.8994 9.6705 10.8402 9.98066 10.8317C10.2908 10.8232 10.5529 10.8571 10.6124 10.8007C10.6376 10.7739 10.5941 10.7225 10.4774 10.6745C10.3211 10.6167 10.1396 10.5901 9.95777 10.5984C9.77577 10.6033 9.60085 10.6433 9.45762 10.7126C9.35004 10.7683 9.31685 10.8204 9.34775 10.8479Z" fill="#263238"/>
<path d="M10.7235 7.97042C13.3112 7.0176 16.1599 7.60747 18.3413 8.88659C18.822 9.16849 19.2569 9.50325 19.8772 9.65407C20.5445 9.81757 21.4223 9.77528 21.8298 10.1389C22.307 10.5618 21.7153 11.1841 22.0712 11.652C22.3974 12.0833 23.3748 12.1933 23.7548 12.6084C24.0535 12.9333 23.8933 13.3371 23.7743 13.7036C23.6552 14.07 23.6232 14.5091 24.081 14.7565L18.4844 16.1702C18.2356 16.2375 17.9612 16.2604 17.6924 16.2364C16.8855 16.1512 16.8077 15.6945 16.866 15.3146C16.9107 15.0327 16.9977 14.7283 16.7928 14.4724C16.5502 14.1708 15.9584 14.0158 15.7398 13.7071C15.3519 13.1623 16.3384 12.5724 16.1908 11.984C16.0992 11.6147 15.5693 11.3391 15.0062 11.1996C14.4431 11.06 13.8274 11.0206 13.2448 10.9177C11.9 10.6767 10.7704 9.94301 10.1649 9.11564C10.0156 8.91583 9.9899 8.68931 10.0928 8.47866C10.1956 8.26802 10.4199 8.08777 10.7235 7.97183V7.97042Z" fill="#263238"/>
<path d="M20.905 15.5126C20.9145 15.5047 20.9252 15.4974 20.9371 15.4908C20.9588 15.4774 20.9909 15.4563 21.0298 15.4274C21.1423 15.3433 21.2305 15.2479 21.2907 15.1455C21.3865 14.9826 21.4048 14.8064 21.3434 14.6373C21.2597 14.4133 21.044 14.2164 20.7379 14.0848C20.5561 14.0131 20.3609 13.9551 20.1565 13.9122C19.9317 13.8656 19.7147 13.8056 19.5087 13.7332C19.4006 13.6923 19.303 13.6417 19.2192 13.583C19.1346 13.521 19.0673 13.4507 19.02 13.3751C18.9288 13.2171 18.8918 13.0491 18.9113 12.8818C18.9227 12.7106 18.9765 12.5393 19.0154 12.3645C19.066 12.188 19.0703 12.0077 19.028 11.8303C18.9285 11.4702 18.5267 11.1481 18.0129 10.9304C17.499 10.7126 16.8889 10.5998 16.3087 10.5244C15.7284 10.449 15.1504 10.4096 14.6114 10.3412C14.3475 10.3091 14.0869 10.2677 13.8308 10.2172C13.7061 10.1925 13.587 10.1615 13.4692 10.1333C13.3513 10.1051 13.2403 10.0692 13.1258 10.0346C12.7225 9.90364 12.3505 9.73906 12.0202 9.54553C11.5411 9.26546 11.1595 8.92834 10.8986 8.55465C10.8505 8.48911 10.8162 8.42921 10.7842 8.37706C10.7521 8.3249 10.7315 8.2805 10.7155 8.24386C10.6995 8.20721 10.688 8.18184 10.6789 8.1614C10.6745 8.1519 10.6711 8.14225 10.6686 8.13251C10.6756 8.14134 10.6813 8.15054 10.6857 8.15999L10.7269 8.24174C10.7441 8.27839 10.7681 8.32208 10.8013 8.37353C10.8345 8.42498 10.8677 8.48418 10.9158 8.54901C11.3704 9.17603 12.1556 9.69009 13.1441 10.0078C13.2517 10.0417 13.3639 10.0734 13.4795 10.1044C13.5951 10.1354 13.7141 10.1622 13.8377 10.1869C14.0921 10.2361 14.3508 10.2766 14.6125 10.3081C15.1493 10.375 15.7238 10.4152 16.3121 10.4892C16.9004 10.5632 17.507 10.6752 18.038 10.9001C18.3004 11.0099 18.5294 11.1473 18.7144 11.306C18.898 11.4596 19.0221 11.637 19.0772 11.8247C19.1194 12.0056 19.1143 12.1895 19.0624 12.3695C19.0235 12.5449 18.9685 12.7155 18.9571 12.8832C18.9372 13.0459 18.9723 13.2093 19.0601 13.3632C19.1043 13.4355 19.1681 13.5027 19.2489 13.5619C19.3288 13.6186 19.4222 13.6676 19.5259 13.7071C19.7291 13.7786 19.943 13.8381 20.1645 13.8847C20.3748 13.9285 20.5754 13.9882 20.762 14.0623C21.0741 14.1989 21.2928 14.4021 21.3754 14.6324C21.4358 14.805 21.4139 14.9846 21.3125 15.1497C21.2489 15.2528 21.1563 15.3483 21.0389 15.4316C20.9985 15.4611 20.9537 15.4883 20.905 15.5126Z" fill="#455A64"/>
<path d="M23.0979 15.316C23.1022 15.3066 23.108 15.2974 23.115 15.2885L23.1711 15.2075C23.2373 15.1026 23.2848 14.9937 23.313 14.8826C23.3579 14.707 23.3579 14.5282 23.313 14.3526C23.2514 14.1204 23.1093 13.899 22.8964 13.7036C22.7717 13.5907 22.6231 13.4886 22.4547 13.3998C22.2807 13.3061 22.0827 13.2201 21.8824 13.1264C21.6719 13.0323 21.4798 12.9235 21.3102 12.8022C21.1351 12.6678 21.0129 12.5103 20.9531 12.342C20.8226 11.9974 20.8958 11.6274 20.8237 11.2553C20.797 11.0657 20.6974 10.8829 20.533 10.7218C20.3506 10.5614 20.1037 10.433 19.8166 10.3489C19.5294 10.2631 19.2238 10.2031 18.909 10.1706C18.5988 10.1347 18.2887 10.1136 17.9842 10.0868C17.3967 10.0343 16.818 9.94959 16.2549 9.83377C15.7479 9.72802 15.2551 9.59819 14.7807 9.44546C14.3696 9.30885 13.9731 9.15608 13.5939 8.98807C13.0472 8.74419 12.5422 8.46674 12.0866 8.15999C12.0076 8.10502 11.9344 8.0571 11.876 8.0134L11.7306 7.90205L11.6414 7.83158C11.6309 7.82401 11.6214 7.81601 11.6128 7.80762C11.6252 7.81405 11.6364 7.82138 11.6459 7.82946L11.7398 7.89571L11.8897 8.00495C11.9492 8.04794 12.0236 8.09445 12.1037 8.1459C12.5638 8.44807 13.0709 8.72165 13.6179 8.9627C13.9976 9.12717 14.3936 9.27687 14.8036 9.41092C15.277 9.56144 15.7683 9.68961 16.2732 9.79431C16.8323 9.90888 17.4068 9.99283 17.9899 10.0452C18.2932 10.072 18.6034 10.0931 18.917 10.1291C19.2372 10.1622 19.5482 10.2232 19.8406 10.3102C20.1367 10.3972 20.391 10.53 20.5788 10.6957C20.7485 10.8633 20.8505 11.0535 20.8764 11.2503C20.9485 11.6288 20.8764 11.9974 21.0011 12.3342C21.0575 12.4978 21.1751 12.651 21.3445 12.7817C21.514 12.9022 21.7061 13.0098 21.9167 13.1024C22.1147 13.1961 22.3127 13.2828 22.489 13.3787C22.6591 13.4694 22.8088 13.5737 22.9342 13.6888C23.1484 13.8879 23.2901 14.1131 23.3497 14.3491C23.3936 14.5268 23.3909 14.7076 23.3417 14.8847C23.3106 14.9965 23.2591 15.1057 23.1883 15.2103L23.1265 15.2899C23.1189 15.2994 23.1093 15.3082 23.0979 15.316Z" fill="#455A64"/>
</svg>
